<svg xmlns="http://www.w3.org/2000/svg" xmlns:xlink="http://www.w3.org/1999/xlink" viewBox="0 0 212.6 85.04"><defs><style>.cls-1{isolation:isolate;}.cls-2,.cls-6,.cls-8{fill:#fff;}.cls-3{fill:none;stroke:#000;stroke-linecap:square;stroke-linejoin:round;}.cls-4{fill:#202020;}.cls-5{fill:url(#Degradado_sin_nombre_26);}.cls-6{opacity:0.62;}.cls-7{fill:#979797;mix-blend-mode:color-burn;}.cls-8,.cls-9{fill-rule:evenodd;}</style><radialGradient id="Degradado_sin_nombre_26" cx="133.7" cy="27.82" r="11.43" gradientTransform="translate(132.98 -110.66) rotate(74.61) scale(1 1.3)" gradientUnits="userSpaceOnUse"><stop offset="0.8" stop-color="#f6ddaa"/><stop offset="1" stop-color="#f6ddaa"/></radialGradient></defs><title>imaginne2024 LOGO</title><g class="cls-1"><g id="Layer_1" data-name="Layer 1"><rect class="cls-2" x="23.23" y="61.76" width="0.64" height="6.31" rx="0.08"/><path class="cls-2" d="M31.24,68.07a.09.09,0,0,1-.09-.09v-5.2L29,65.46a.09.09,0,0,1-.07,0h0a.07.07,0,0,1-.06,0l-2.2-2.68V68a.09.09,0,0,1-.08.09h-.48A.09.09,0,0,1,26,68V61.85a.09.09,0,0,1,.08-.09h.48l2.34,2.8,2.27-2.77.55,0a.09.09,0,0,1,.08.09V68a.09.09,0,0,1-.08.09Z"/><path class="cls-2" d="M38.79,68.07l-1-2.17-2.92,0L33.93,68l-.58,0a.08.08,0,0,1-.07,0,.08.08,0,0,1,0-.08l2.84-6.18.34-.05L39.36,68a.08.08,0,0,1,0,.08.1.1,0,0,1-.07,0ZM37.5,65.38l-1.18-2.6-1.19,2.6Z"/><path class="cls-2" d="M43.56,68.15a3.41,3.41,0,0,1-2.44-.93,3.21,3.21,0,0,1,0-4.62,3.37,3.37,0,0,1,2.41-.92,5.17,5.17,0,0,1,2.14.53l.05.62a.08.08,0,0,1,0,.07h-.08a4.36,4.36,0,0,0-2.14-.61,2.56,2.56,0,0,0-2.62,2.63,2.55,2.55,0,0,0,.74,1.87,2.7,2.7,0,0,0,2,.75,3.52,3.52,0,0,0,1.65-.37l0-1.5H44a.07.07,0,0,1-.08-.08v-.4a.08.08,0,0,1,.08-.08h1.78a.09.09,0,0,1,.08.08v2.35A4.58,4.58,0,0,1,43.56,68.15Z"/><path class="cls-2" d="M47.86,68.07a.09.09,0,0,1-.08-.09V61.85a.09.09,0,0,1,.08-.09h3.35a.09.09,0,0,1,.09.09v.39a.09.09,0,0,1-.09.09H48.42v2.28h2.72a.09.09,0,0,1,.08.09v.4a.09.09,0,0,1-.08.08H48.42V67.5h2.86a.09.09,0,0,1,.09.09V68a.09.09,0,0,1-.09.09Z"/><path class="cls-2" d="M58.3,68.07l-4.58-5.23V68a.09.09,0,0,1-.09.09h-.47a.09.09,0,0,1-.09-.09V61.85a.09.09,0,0,1,.09-.09h.4L58.13,67V61.85a.09.09,0,0,1,.09-.09h.47a.09.09,0,0,1,.09.09V68a.09.09,0,0,1-.09.09Z"/><rect x="65.03" y="61.76" width="0.64" height="6.31" rx="0.08"/><path d="M73,68.07l-4.58-5.23V68a.09.09,0,0,1-.09.09h-.47A.09.09,0,0,1,67.8,68V61.85a.09.09,0,0,1,.09-.09h.4L72.86,67V61.85a.09.09,0,0,1,.09-.09h.47a.09.09,0,0,1,.09.09V68a.09.09,0,0,1-.09.09Z"/><path d="M80.87,68.07l-4.58-5.23V68a.09.09,0,0,1-.09.09h-.47a.09.09,0,0,1-.09-.09V61.85a.09.09,0,0,1,.09-.09h.4L80.7,67V61.85a.09.09,0,0,1,.09-.09h.47a.09.09,0,0,1,.09.09V68a.09.09,0,0,1-.09.09Z"/><path d="M86.57,68.15a3.32,3.32,0,0,1-2.37-.94,3.22,3.22,0,0,1,0-4.59,3.45,3.45,0,0,1,4.73,0,3.18,3.18,0,0,1,0,4.59A3.29,3.29,0,0,1,86.57,68.15Zm0-5.86a2.62,2.62,0,0,0-1.89.76,2.64,2.64,0,0,0,0,3.73,2.64,2.64,0,0,0,1.89.76,2.6,2.6,0,0,0,1.88-.76,2.67,2.67,0,0,0,0-3.73A2.6,2.6,0,0,0,86.58,62.29Z"/><path d="M93.42,68.13l-2.66-6.25a.09.09,0,0,1,.08-.12h.48l2.18,5.06,2.08-5,.56-.05a.09.09,0,0,1,.07,0,.08.08,0,0,1,0,.08l-2.57,6.2a.08.08,0,0,1-.08,0Z"/><path d="M102,68.07l-1-2.17L98,66,97.13,68l-.57,0a.12.12,0,0,1-.08,0,.11.11,0,0,1,0-.08l2.84-6.18.33-.05L102.57,68a.08.08,0,0,1,0,.08.08.08,0,0,1-.07,0Zm-1.28-2.69-1.19-2.6-1.19,2.6Z"/><path d="M106.68,68.15a3.34,3.34,0,0,1-2.39-.92,3.24,3.24,0,0,1,0-4.62,3.26,3.26,0,0,1,2.33-.93,5.34,5.34,0,0,1,2.19.52l0,.6a.07.07,0,0,1,0,.07h-.08a4.66,4.66,0,0,0-2.15-.58,2.5,2.5,0,0,0-1.85.75,2.58,2.58,0,0,0-.75,1.89,2.54,2.54,0,0,0,.75,1.87,2.63,2.63,0,0,0,1.92.74,4.63,4.63,0,0,0,2.14-.62h.08a.09.09,0,0,1,0,.08v.49A4.36,4.36,0,0,1,106.68,68.15Z"/><rect x="110.59" y="61.76" width="0.64" height="6.31" rx="0.08"/><path d="M116.44,68.15a3.29,3.29,0,0,1-2.36-.94,3.2,3.2,0,0,1,0-4.59,3.28,3.28,0,0,1,2.36-.94,3.33,3.33,0,0,1,2.37.94,3.2,3.2,0,0,1,0,4.59A3.33,3.33,0,0,1,116.44,68.15Zm0-5.86a2.62,2.62,0,0,0-1.89.76,2.62,2.62,0,0,0,0,3.73,2.62,2.62,0,0,0,1.89.76,2.59,2.59,0,0,0,1.87-.76,2.64,2.64,0,0,0,0-3.73A2.59,2.59,0,0,0,116.46,62.29Zm-.14-.87a.08.08,0,0,1-.08-.05.14.14,0,0,1,0-.09l.94-1.4.8,0a.08.08,0,0,1,.08.06.08.08,0,0,1,0,.09l-1.37,1.4a.06.06,0,0,1-.06,0Z"/><path d="M126.89,68.07l-4.58-5.23V68a.09.09,0,0,1-.08.09h-.48a.08.08,0,0,1-.08-.09V61.85a.08.08,0,0,1,.08-.09h.4L126.72,67V61.85a.09.09,0,0,1,.09-.09h.47a.09.09,0,0,1,.09.09V68a.09.09,0,0,1-.09.09Z"/><path class="cls-2" d="M133.73,68.07a.09.09,0,0,1-.09-.09V61.85a.09.09,0,0,1,.09-.09h3.35a.09.09,0,0,1,.08.09v.39a.09.09,0,0,1-.08.09h-2.79v2.28H137a.09.09,0,0,1,.09.09v.4a.09.09,0,0,1-.09.08h-2.71V67.5h2.86a.09.09,0,0,1,.08.09V68a.09.09,0,0,1-.08.09Z"/><path class="cls-2" d="M140.39,68.15a3,3,0,0,1-1.62-.55l0-.63a.1.1,0,0,1,.05-.08h0l0,0a2.78,2.78,0,0,0,1.5.64,1.24,1.24,0,0,0,.87-.33,1.12,1.12,0,0,0,.13-1.46,2,2,0,0,0-.91-.56,7.68,7.68,0,0,1-1-.45,1.51,1.51,0,0,1-.54-.5,1.39,1.39,0,0,1-.23-.84,1.59,1.59,0,0,1,.54-1.22,1.88,1.88,0,0,1,1.31-.5,3,3,0,0,1,1.46.4l0,.6a.08.08,0,0,1,0,.07h-.08a2.74,2.74,0,0,0-1.34-.46,1.25,1.25,0,0,0-.87.31,1,1,0,0,0-.34.77.94.94,0,0,0,.2.59,2.1,2.1,0,0,0,.89.53,8.44,8.44,0,0,1,1,.44,1.62,1.62,0,0,1,.57.54,1.58,1.58,0,0,1,.24.91,1.67,1.67,0,0,1-.55,1.26A1.85,1.85,0,0,1,140.39,68.15Z"/><path class="cls-2" d="M145.78,68.07a.09.09,0,0,1-.09-.09V62.33h-2.21a.09.09,0,0,1-.09-.09v-.39a.09.09,0,0,1,.09-.09h5.08a.09.09,0,0,1,.09.09v.39a.09.09,0,0,1-.09.09h-2.22V68a.08.08,0,0,1-.08.09Z"/><path class="cls-2" d="M154.3,68.07l-1.14-1.72a4,4,0,0,0-.82-1,1.42,1.42,0,0,0-.82-.19h-.75V68a.08.08,0,0,1-.08.09h-.48a.09.09,0,0,1-.08-.09V61.85a.09.09,0,0,1,.08-.09h1.58a2.4,2.4,0,0,1,1.56.45,1.5,1.5,0,0,1,.56,1.22,1.56,1.56,0,0,1-1.07,1.51,3.94,3.94,0,0,1,.7.88l1.39,2.12a.08.08,0,0,1,0,.08.1.1,0,0,1-.08,0Zm-2.59-3.51a1.84,1.84,0,0,0,1.14-.3,1,1,0,0,0,.37-.82.94.94,0,0,0-.38-.81,1.88,1.88,0,0,0-1.15-.3h-.92v2.23Z"/><path class="cls-2" d="M161,68.07l-1-2.17-2.93,0L156.17,68l-.57,0a.08.08,0,0,1-.07,0,.08.08,0,0,1,0-.08l2.84-6.18.33-.05L161.61,68a.11.11,0,0,1,0,.08.12.12,0,0,1-.08,0Zm-1.29-2.69-1.19-2.6-1.19,2.6Z"/><path class="cls-2" d="M163.9,68.07a.08.08,0,0,1-.08-.09V62.33H161.6a.09.09,0,0,1-.09-.09v-.39a.09.09,0,0,1,.09-.09h5.08a.09.09,0,0,1,.09.09v.39a.09.09,0,0,1-.09.09h-2.22V68a.08.08,0,0,1-.08.09Z"/><path class="cls-2" d="M168.34,68.07a.09.09,0,0,1-.08-.09V61.85a.09.09,0,0,1,.08-.09h3.35a.09.09,0,0,1,.09.09v.39a.09.09,0,0,1-.09.09H168.9v2.28h2.72a.09.09,0,0,1,.08.09v.4a.09.09,0,0,1-.08.08H168.9V67.5h2.86a.09.09,0,0,1,.09.09V68a.09.09,0,0,1-.09.09Z"/><path class="cls-2" d="M176.72,68.15a3.41,3.41,0,0,1-2.44-.93,3.09,3.09,0,0,1-1-2.32,3,3,0,0,1,1-2.3,3.38,3.38,0,0,1,2.42-.92,5.25,5.25,0,0,1,2.14.53l.05.62a.1.1,0,0,1,0,.07h-.09a4.35,4.35,0,0,0-2.13-.61,2.66,2.66,0,0,0-1.89,4.5,2.71,2.71,0,0,0,2,.75,3.45,3.45,0,0,0,1.64-.37l0-1.5h-1.21a.08.08,0,0,1-.09-.08v-.4a.09.09,0,0,1,.09-.08h1.77a.09.09,0,0,1,.09.08v2.35A4.61,4.61,0,0,1,176.72,68.15Z"/><rect class="cls-2" x="180.93" y="61.76" width="0.64" height="6.31" rx="0.08"/><path class="cls-2" d="M188.55,68.07l-1-2.17-2.93,0L183.69,68l-.58,0a.1.1,0,0,1-.07,0,.08.08,0,0,1,0-.08l2.83-6.18.34-.05L189.13,68a.08.08,0,0,1,0,.08.08.08,0,0,1-.07,0Zm-1.28-2.69-1.19-2.6-1.19,2.6Z"/><line class="cls-3" x1="10.78" y1="55.43" x2="201.82" y2="55.43"/><path class="cls-2" d="M23.28,23.28H26.6a.23.23,0,0,1,.22.23V50.25a.22.22,0,0,1-.22.23H23.28a.23.23,0,0,1-.23-.23V23.51A.23.23,0,0,1,23.28,23.28Z"/><path class="cls-2" d="M53.73,23.28h3.19a.23.23,0,0,1,.23.23V50.25a.23.23,0,0,1-.23.23H53.59a.23.23,0,0,1-.23-.23V30a.23.23,0,0,0-.41-.13l-7.69,10h-.7l-7.79-10a.22.22,0,0,0-.4.14V50.25a.23.23,0,0,1-.23.23H32.82a.23.23,0,0,1-.23-.23V23.51a.23.23,0,0,1,.23-.23h3.23a.24.24,0,0,1,.18.09l8.51,10.85a.22.22,0,0,0,.36,0l8.46-10.85A.22.22,0,0,1,53.73,23.28Z"/><path class="cls-2" d="M71.39,23.13h2.35a.22.22,0,0,1,.21.13l11.62,26.9a.23.23,0,0,1-.21.32H82a.22.22,0,0,1-.2-.14l-3.4-7.79a.21.21,0,0,0-.2-.13h-11a.23.23,0,0,0-.21.14l-3.17,7.78a.24.24,0,0,1-.21.14H60.26a.23.23,0,0,1-.21-.32L71.18,23.27A.23.23,0,0,1,71.39,23.13Zm5.26,15.51-3.9-9a.23.23,0,0,0-.42,0l-3.62,9a.23.23,0,0,0,.21.31h7.52A.23.23,0,0,0,76.65,38.64Z"/><path class="cls-2" d="M100.51,38.06h8.4a.22.22,0,0,1,.22.22V48.46a.23.23,0,0,1-.14.21,23.43,23.43,0,0,1-9.52,2.12q-6.54,0-10.45-3.94a13.27,13.27,0,0,1-3.92-9.73A13.86,13.86,0,0,1,99.32,22.93a17.51,17.51,0,0,1,4.23.5,32.84,32.84,0,0,1,4.91,1.76.22.22,0,0,1,.14.21v3.43a.21.21,0,0,1-.33.19,17.93,17.93,0,0,0-9-2.62,9.75,9.75,0,0,0-7.28,3,10.22,10.22,0,0,0-3,7.45,10.18,10.18,0,0,0,3,7.57,10.34,10.34,0,0,0,7.62,2.94A17.36,17.36,0,0,0,105,46.33l.36-.12V41.75a.23.23,0,0,0-.23-.23h-4.62a.22.22,0,0,1-.22-.23v-3A.22.22,0,0,1,100.51,38.06Z"/><path d="M114.9,23.28h3.32a.23.23,0,0,1,.23.23V50.25a.23.23,0,0,1-.23.23H114.9a.22.22,0,0,1-.22-.23V23.51A.23.23,0,0,1,114.9,23.28Z"/><path d="M165.26,23.28h3.13a.23.23,0,0,1,.22.23V50.25a.22.22,0,0,1-.22.23h-2.92a.23.23,0,0,1-.17-.08L148.15,30a.23.23,0,0,0-.4.15V50.25a.22.22,0,0,1-.22.23h-3.1a.22.22,0,0,1-.22-.23V23.51a.23.23,0,0,1,.22-.23h2.73a.23.23,0,0,1,.17.08l17.3,20.57a.23.23,0,0,0,.4-.15V23.51A.23.23,0,0,1,165.26,23.28Z"/><path class="cls-4" d="M139,42.22c.57-.14.71-.42.76-.74V31.77a8.66,8.66,0,0,0-8,2.7L138,42A1.25,1.25,0,0,0,139,42.22Z"/><path class="cls-5" d="M137.85,18.64c-1.12.41-3.3-.82-3.3-.82s.06,2.09-3.16,3.1c-3.74,1.17-5.63-.57-5.63-.57S125.51,23,123,22.94a7.2,7.2,0,0,1-1.33-.37l10.08,11.9a8.66,8.66,0,0,1,8-2.7V16.67A3,3,0,0,1,137.85,18.64Z"/><path class="cls-6" d="M139.32,41.37,137,18.7a8.08,8.08,0,0,1-2.42-.88v0L139.1,41A1.31,1.31,0,0,0,139.32,41.37Z"/><path class="cls-7" d="M139.37,41.49,128.14,21.28a4.53,4.53,0,0,1-2.44-.93,3.19,3.19,0,0,1-1.36,2.26L139,41.94C139.31,42,139.46,41.57,139.37,41.49Z"/><path class="cls-8" d="M135.33,46.81l-4.05,0a.36.36,0,0,0-.37.45l-2.18-.06A8.33,8.33,0,0,1,127.51,49l-3,3.52a.4.4,0,0,1-.71-.2V33a.4.4,0,0,1,.71-.2l11.08,13.45C135.83,46.49,135.65,46.8,135.33,46.81Z"/><path class="cls-9" d="M125,33.3h-1.1V52H125v1.35h-2.22V30.61h1.11v1.33H125V33.3Z"/><path class="cls-9" d="M136.09,48H136l-7.63,0V46.67H135V45.34h0l.77,0h.36Z"/><path class="cls-9" d="M132.74,42.65h-1.1V42c0-.23,0-.47,0-.71h1.13v.24c0,.37,0,.74,0,1.1Z"/><path class="cls-9" d="M133.85,44h-1.11V42.65h1.11V44Z"/><path class="cls-9" d="M133.85,44H135v1.34h0l-.87,0h-.24V44Z"/><path class="cls-9" d="M126.08,34.64h-.82a3,3,0,0,0-.3,0V33.3h1.11v1.35Z"/><path class="cls-9" d="M125,52v-1.3h1.11V52Z"/><path class="cls-9" d="M126.07,34.65l.66,0c.15,0,.3,0,.45,0v1.31h-1.1v-1.3Z"/><path class="cls-9" d="M128.32,37.27l.54,0h.54v1.32h-1.08V37.27Z"/><path class="cls-9" d="M131.62,41.31h-1.08V40h1.08v1.33Z"/><path class="cls-9" d="M127.21,49.36V48h1.08v1.32h-.87l-.22,0Z"/><path class="cls-9" d="M130.51,40h-1.08V38.64h1.08Z"/><path class="cls-9" d="M128.32,37.27H127.2V36h1.1v.8c0,.16,0,.33,0,.5Z"/><path class="cls-9" d="M127.2,49.35c0,.33,0,.66,0,1v.31h-1.1V49.34c.14,0,.29,0,.43,0l.69,0Z"/><path class="cls-2" d="M174.48,23.28H189a.23.23,0,0,1,.23.23v3a.23.23,0,0,1-.23.23H178.25A.22.22,0,0,0,178,27v7.83a.22.22,0,0,0,.22.23h10.34a.22.22,0,0,1,.22.23v3a.23.23,0,0,1-.22.23H178.25a.22.22,0,0,0-.22.22v8a.22.22,0,0,0,.22.22h11.07a.23.23,0,0,1,.23.23v3a.23.23,0,0,1-.23.23H174.48a.23.23,0,0,1-.23-.23V23.51A.23.23,0,0,1,174.48,23.28Z"/></g></g></svg>